HIERARCHY
ROOT Hips
{
	OFFSET 0.000000 0.000000 0.000000
	CHANNELS 6 Xposition Yposition Zposition Zrotation Yrotation Xrotation 
	JOINT LHipJoint
	{
		OFFSET 0.000000 0.000000 0.000000
		CHANNELS 3 Zrotation Yrotation Xrotation
		JOINT LeftUpLeg
		{
			OFFSET 1.363060 -1.794630 0.839290
			CHANNELS 3 Zrotation Yrotation Xrotation
			JOINT LeftLeg
			{
				OFFSET 2.448110 -6.726130 0.000000
				CHANNELS 3 Zrotation Yrotation Xrotation
				JOINT LeftFoot
				{
					OFFSET 2.562200 -7.039590 0.000000
					CHANNELS 3 Zrotation Yrotation Xrotation
					JOINT LeftToeBase
					{
						OFFSET 0.157640 -0.433110 2.322550
						CHANNELS 3 Zrotation Yrotation Xrotation
						End Site
						{
							OFFSET 0.000000 0.000000 0.000000
						}
					}
				}
			}
		}
	}
	JOINT RHipJoint
	{
		OFFSET 0.000000 0.000000 0.000000
		CHANNELS 3 Zrotation Yrotation Xrotation
		JOINT RightUpLeg
		{
			OFFSET -1.305520 -1.794630 0.839290
			CHANNELS 3 Zrotation Yrotation Xrotation
			JOINT RightLeg
			{
				OFFSET -2.542530 -6.985550 0.000000
				CHANNELS 3 Zrotation Yrotation Xrotation
				JOINT RightFoot
				{
					OFFSET -2.568260 -7.056230 0.000000
					CHANNELS 3 Zrotation Yrotation Xrotation
					JOINT RightToeBase
					{
						OFFSET -0.164730 -0.452590 2.363150
						CHANNELS 3 Zrotation Yrotation Xrotation
						End Site
						{
							OFFSET 0.000000 0.000000 0.000000
						}
					}
				}
			}
		}
	}
}
MOTION
Frames: 19
Frame Time: 0.008333
3.955829 17.126141 1.873633 12.695537 -23.747077 0.299598 -7.233073 0.253430 10.352854 -13.942016 -37.236147 -11.725040 -4.202970 -0.784629 0.624958 -1.111625 -7.688400 10.336794 -1.606500 0.000000 -41.564600 11.871162 -0.330040 -5.849886 -11.177977 -41.409241 4.358735 0.356900 0.426596 4.094270 -5.792278 -33.990848 -0.103704 -6.844101 -0.000000 -44.645100
3.965971 17.127073 1.865763 12.915076 -24.022540 0.132867 -7.342384 0.199097 10.312914 -14.073961 -37.105632 -11.579544 -4.205152 -0.800471 0.440613 -1.100444 -7.524688 10.443500 -1.570200 -0.000000 -41.239001 11.780617 -0.328347 -5.802505 -11.252813 -41.101744 4.296076 0.333750 0.399632 4.160931 -5.797679 -33.918514 -0.149556 -6.802500 0.000000 -44.747900
3.974845 17.129367 1.856818 13.144860 -24.356799 -0.003359 -7.460241 0.138176 10.240109 -14.193927 -36.900675 -11.463064 -4.206344 -0.819645 0.253162 -1.091376 -7.375947 10.561187 -1.537600 -0.000000 -40.899599 11.690553 -0.326604 -5.761100 -11.293444 -40.764467 4.182120 0.316617 0.370284 4.205949 -5.799288 -33.814217 -0.192038 -6.755600 0.000000 -44.852900
3.981326 17.133009 1.846874 13.373125 -24.709257 -0.103212 -7.577597 0.074303 10.142995 -14.296359 -36.641530 -11.380344 -4.207885 -0.841204 0.067347 -1.085899 -7.258925 10.693866 -1.514100 0.000000 -40.571800 11.607653 -0.326229 -5.727883 -11.301984 -40.431832 4.033294 0.306624 0.341791 4.214365 -5.797186 -33.688382 -0.228877 -6.706900 -0.000001 -44.924100
3.984466 17.138076 1.836213 13.584130 -25.047912 -0.160555 -7.685505 0.013032 10.033396 -14.371061 -36.348322 -11.335589 -4.210118 -0.864055 -0.114742 -1.084893 -7.185615 10.844974 -1.503800 -0.000000 -40.280700 11.538522 -0.329897 -5.700967 -11.272021 -40.127771 3.863647 0.303720 0.317841 4.170086 -5.792150 -33.555971 -0.253587 -6.664000 -0.000001 -44.937400
3.983580 17.144634 1.825287 13.755910 -25.348654 -0.169936 -7.774292 -0.038918 9.926756 -14.403805 -36.043537 -11.332534 -4.212779 -0.887333 -0.293872 -1.088541 -7.160416 11.014941 -1.508599 0.000000 -40.035600 11.490329 -0.341640 -5.674376 -11.192211 -39.867221 3.685344 0.306937 0.302239 4.057826 -5.785451 -33.435215 -0.256474 -6.637600 0.000000 -44.893100
3.978240 17.152588 1.814753 13.863973 -25.590419 -0.127418 -7.832851 -0.074550 9.840413 -14.380538 -35.752662 -11.370782 -4.216210 -0.910987 -0.473142 -1.096690 -7.180311 11.202420 -1.528000 -0.000000 -39.847400 11.471698 -0.366738 -5.640657 -11.053643 -39.667176 3.508666 0.316345 0.298116 3.868988 -5.776548 -33.332605 -0.232096 -6.631700 -0.000000 -44.782800
3.968348 17.161443 1.804963 13.895880 -25.755344 -0.033906 -7.854496 -0.090682 9.784378 -14.296861 -35.501092 -11.441289 -4.221252 -0.935432 -0.654370 -1.108601 -7.234999 11.399730 -1.558700 0.000000 -39.708200 11.487177 -0.407796 -5.598561 -10.859457 -39.542388 3.348328 0.331700 0.306472 3.602967 -5.764749 -33.250421 -0.176974 -6.648401 0.000000 -44.635400
3.954511 17.170739 1.795879 13.855818 -25.838670 0.104356 -7.844351 -0.089524 9.758628 -14.154338 -35.309845 -11.531732 -4.226375 -0.959829 -0.841306 -1.122172 -7.306953 11.601480 -1.595500 0.000000 -39.610800 11.529371 -0.461887 -5.555771 -10.620497 -39.498314 3.219871 0.352428 0.326368 3.265688 -5.749565 -33.186633 -0.090318 -6.687499 -0.000000 -44.462900
3.937700 17.180260 1.787433 13.753290 -25.851658 0.282770 -7.812832 -0.074657 9.760043 -13.952148 -35.192130 -11.636738 -4.228148 -0.982744 -1.037528 -1.134726 -7.376296 11.801430 -1.632700 0.000000 -39.535200 11.586041 -0.524966 -5.518208 -10.338011 -39.518086 3.129050 0.376456 0.356645 2.862221 -5.732969 -33.149617 0.029585 -6.753000 0.000000 -44.282800
3.918630 17.189821 1.779871 13.600859 -25.810992 0.499568 -7.769556 -0.048741 9.786311 -13.685789 -35.155924 -11.759731 -4.223175 -1.002855 -1.241264 -1.143839 -7.424027 11.991102 -1.664300 0.000000 -39.463800 11.646576 -0.594079 -5.488218 -10.008257 -39.580669 3.070228 0.402334 0.395797 2.403205 -5.716570 -33.144930 0.184706 -6.848599 0.000000 -44.114700
3.898429 17.199318 1.773091 13.409508 -25.752461 0.746290 -7.723240 -0.013502 9.831541 -13.357380 -35.197683 -11.892196 -4.207861 -1.019655 -1.464310 -1.146641 -7.425076 12.165981 -1.682600 0.000000 -39.365800 11.701545 -0.664791 -5.464888 -9.627742 -39.639601 3.043375 0.425465 0.443255 1.893023 -5.704349 -33.184777 0.365133 -6.973500 0.000000 -43.936400
3.878296 17.208594 1.766973 13.186699 -25.692950 1.019004 -7.680905 0.028088 9.889943 -12.968387 -35.311967 -12.041262 -4.180613 -1.031808 -1.688139 -1.141893 -7.367354 12.313092 -1.682000 0.000000 -39.238901 11.744575 -0.735641 -5.449257 -9.198538 -39.680095 3.034543 0.446250 0.495495 1.357143 -5.695999 -33.261936 0.568599 -7.125400 -0.000000 -43.779600
3.859222 17.217362 1.761275 12.938374 -25.662256 1.307117 -7.644168 0.075744 9.955625 -12.527746 -35.483696 -12.201502 -4.141137 -1.039536 -1.908116 -1.128489 -7.235791 12.423401 -1.656400 -0.000000 -39.073900 11.774976 -0.804816 -5.437458 -8.726347 -39.673406 3.036772 0.462714 0.550540 0.814080 -5.692244 -33.370270 0.781310 -7.295200 -0.000000 -43.641700
3.841725 17.225163 1.755846 12.665232 -25.682443 1.601597 -7.606980 0.130903 10.025665 -12.047742 -35.696552 -12.369113 -4.091843 -1.044309 -2.113794 -1.106607 -7.021506 12.484897 -1.600900 0.000000 -38.876000 11.800086 -0.872305 -5.423580 -8.224012 -39.610170 3.038464 0.475465 0.606298 0.288341 -5.690853 -33.487821 0.985651 -7.465900 -0.000000 -43.532900
3.826328 17.231822 1.750564 12.368120 -25.782830 1.895388 -7.566368 0.195458 10.097275 -11.538819 -35.924728 -12.550446 -4.033606 -1.046294 -2.289795 -1.076566 -6.725548 12.486631 -1.514500 0.000000 -38.658100 11.824119 -0.936887 -5.401026 -7.698851 -39.479976 3.021874 0.485265 0.661411 -0.197477 -5.689846 -33.595398 1.169573 -7.624500 0.000000 -43.472200
3.812897 17.237237 1.744577 12.067516 -26.001686 2.169637 -7.523843 0.268289 10.160681 -11.026755 -36.138567 -12.726038 -3.967376 -1.046242 -2.441130 -1.037517 -6.339521 12.430698 -1.395400 -0.000000 -38.426601 11.846956 -0.992874 -5.367681 -7.171782 -39.257015 2.990086 0.489146 0.714416 -0.630356 -5.689768 -33.680818 1.311885 -7.754200 0.000000 -43.440100
3.802047 17.241533 1.737374 11.774097 -26.363331 2.421153 -7.488070 0.346262 10.205941 -10.526518 -36.300064 -12.908469 -3.892567 -1.042313 -2.542602 -0.990279 -5.883938 12.309125 -1.250199 0.000000 -38.204000 11.862236 -1.036326 -5.324887 -6.651111 -38.939205 2.924931 0.488792 0.763028 -0.990260 -5.688823 -33.727833 1.410766 -7.848600 -0.000000 -43.469000
3.793485 17.244674 1.728325 11.502700 -26.883872 2.639756 -7.461642 0.426060 10.223154 -10.061937 -36.378334 -13.085112 -3.811976 -1.035798 -2.592431 -0.935859 -5.369374 12.125075 -1.083700 -0.000000 -38.008300 11.870181 -1.064796 -5.274355 -6.156292 -38.527201 2.824934 0.484697 0.805118 -1.265459 -5.685091 -33.716987 1.455082 -7.893700 -0.000000 -43.566000
